<?xml version="1.0" encoding="UTF-8" standalone="no"?>
<!-- Created with Inkscape (http://www.inkscape.org/) -->

<svg
   xmlns:dc="http://purl.org/dc/elements/1.1/"
   xmlns:cc="http://creativecommons.org/ns#"
   xmlns:rdf="http://www.w3.org/1999/02/22-rdf-syntax-ns#"
   xmlns:svg="http://www.w3.org/2000/svg"
   xmlns="http://www.w3.org/2000/svg"
   xmlns:sodipodi="http://sodipodi.sourceforge.net/DTD/sodipodi-0.dtd"
   xmlns:inkscape="http://www.inkscape.org/namespaces/inkscape"
   width="744.09448"
   height="1052.3622"
   id="svg2"
   version="1.1"
   inkscape:version="0.48.4 r9939"
   sodipodi:docname="New document 1">
  <defs
     id="defs4" />
  <sodipodi:namedview
     id="base"
     pagecolor="#ffffff"
     bordercolor="#666666"
     borderopacity="1.0"
     inkscape:pageopacity="0.0"
     inkscape:pageshadow="2"
     inkscape:zoom="2"
     inkscape:cx="297"
     inkscape:cy="2053.2677"
     inkscape:document-units="px"
     inkscape:current-layer="layer1"
     showgrid="true"
     units="mm"
     inkscape:window-width="1600"
     inkscape:window-height="837"
     inkscape:window-x="-8"
     inkscape:window-y="-8"
     inkscape:window-maximized="1">
    <inkscape:grid
       type="xygrid"
       id="grid2987"
       empspacing="5"
       visible="true"
       enabled="true"
       snapvisiblegridlinesonly="true"
       units="mm"
       spacingx="5mm"
       spacingy="5mm" />
  </sodipodi:namedview>
  <metadata
     id="metadata7">
    <rdf:RDF>
      <cc:Work
         rdf:about="">
        <dc:format>image/svg+xml</dc:format>
        <dc:type
           rdf:resource="http://purl.org/dc/dcmitype/StillImage" />
        <dc:title></dc:title>
      </cc:Work>
    </rdf:RDF>
  </metadata>
  <g
     inkscape:label="Layer 1"
     inkscape:groupmode="layer"
     id="layer1"
     transform="translate(0,-2.5390623e-6)">
    <path
       sodipodi:type="arc"
       style="fill:none;stroke:#000000;stroke-width:1px;stroke-linecap:butt;stroke-linejoin:miter;stroke-opacity:1"
       id="path2989"
       sodipodi:cx="62.007874"
       sodipodi:cy="-1047.0472"
       sodipodi:rx="8.8582678"
       sodipodi:ry="8.8582678"
       d="m 70.866141,-1047.0472 a 8.8582678,8.8582678 0 1 1 -17.716535,0 8.8582678,8.8582678 0 1 1 17.716535,0 z"
       transform="translate(18,18.000002)" />
    <path
       sodipodi:type="arc"
       style="fill:none;stroke:#000000;stroke-opacity:1"
       id="path5227"
       sodipodi:cx="62.007874"
       sodipodi:cy="-993.89764"
       sodipodi:rx="8.8582678"
       sodipodi:ry="8.8582678"
       d="m 70.866141,-993.89764 a 8.8582678,8.8582678 0 1 1 -17.716535,0 8.8582678,8.8582678 0 1 1 17.716535,0 z"
       transform="translate(18,18.000002)" />
    <path
       sodipodi:type="arc"
       style="fill:none;stroke:#000000;stroke-opacity:1"
       id="path5231"
       sodipodi:cx="62.007874"
       sodipodi:cy="-940.74805"
       sodipodi:rx="8.8582678"
       sodipodi:ry="8.8582678"
       d="m 70.866141,-940.74805 a 8.8582678,8.8582678 0 1 1 -17.716535,0 8.8582678,8.8582678 0 1 1 17.716535,0 z"
       transform="translate(18,18.000002)" />
    <path
       sodipodi:type="arc"
       style="fill:none;stroke:#000000;stroke-opacity:1"
       id="path5233"
       sodipodi:cx="115.15748"
       sodipodi:cy="-993.89764"
       sodipodi:rx="8.8582678"
       sodipodi:ry="8.8582678"
       d="m 124.01575,-993.89764 a 8.8582678,8.8582678 0 1 1 -17.71654,0 8.8582678,8.8582678 0 1 1 17.71654,0 z"
       transform="translate(18,18.000002)" />
    <path
       sodipodi:type="arc"
       style="fill:none;stroke:#000000;stroke-opacity:1"
       id="path5235"
       sodipodi:cx="168.30708"
       sodipodi:cy="-993.89764"
       sodipodi:rx="8.8582678"
       sodipodi:ry="8.8582678"
       d="m 177.16535,-993.89764 a 8.8582678,8.8582678 0 1 1 -17.71653,0 8.8582678,8.8582678 0 1 1 17.71653,0 z"
       transform="translate(18,18.000002)" />
    <path
       sodipodi:type="arc"
       style="fill:none;stroke:#000000;stroke-opacity:1"
       id="path5237"
       sodipodi:cx="168.30708"
       sodipodi:cy="-1047.0472"
       sodipodi:rx="8.8582678"
       sodipodi:ry="8.8582678"
       d="m 177.16535,-1047.0472 a 8.8582678,8.8582678 0 1 1 -17.71653,0 8.8582678,8.8582678 0 1 1 17.71653,0 z"
       transform="translate(18,18.000002)" />
    <path
       sodipodi:type="arc"
       style="fill:none;stroke:#000000;stroke-opacity:1"
       id="path5239"
       sodipodi:cx="168.30708"
       sodipodi:cy="-940.74805"
       sodipodi:rx="8.8582678"
       sodipodi:ry="8.8582678"
       d="m 177.16535,-940.74805 a 8.8582678,8.8582678 0 1 1 -17.71653,0 8.8582678,8.8582678 0 1 1 17.71653,0 z"
       transform="translate(18,18.000002)" />
    <rect
       style="fill:none;stroke:#000000;stroke-linejoin:round;stroke-opacity:1"
       id="rect5243"
       width="194.8819"
       height="194.8819"
       x="35.433071"
       y="-1073.6221"
       transform="translate(0,2.5390623e-6)"
       rx="17.716536"
       ry="17.716536" />
  </g>
</svg>
